# xmcd CD database file
#
# Track frame offsets:
#	150
#	4929
#	24808
#	44688
#
# Disc length: 1029 seconds
#
# Revision: 0
# Processed by: cddbd v1.5.1PL2 Copyright (c) Steve Scherf et al.
# Submitted via: CDex 1.60beta1
#
DISCID=26040304
DTITLE=仲里ひかり(CV：友永朱音) - ラムネ Characters Collection Vol.2 仲里 ひかり
DYEAR=2006
DGENRE=Anime
TTITLE0=モノローグ「仲里 ひかり」
TTITLE1=大好きなSeason
TTITLE2=大好きなSeason 〜Original Karaoke〜
TTITLE3=ラムネ・アフターストーリー「仲里 ひかり」
EXTD=YEAR: 2006
EXTT0=
EXTT1=
EXTT2=
EXTT3=
PLAYORDER=
